<svg xmlns="http://www.w3.org/2000/svg" width="193.992" height="180.783" viewBox="0 0 193.992 180.783">
  <defs>
    <style>
      .cls-1 {
        fill: #fff;
        stroke: #1d1d1b;
        stroke-miterlimit: 10;
        stroke-width: 2px;
      }
    </style>
  </defs>
  <g id="Ebene_2" data-name="Ebene 2">
    <polygon id="form_24" data-name="form 24" class="cls-1" points="183.491 58.653 183.491 58.437 126.757 58.437 126.757 2.609 113.826 18.473 96.945 39.183 80.065 18.473 67.134 2.609 67.134 58.437 10.4 58.437 26.264 71.367 46.974 88.248 26.264 105.129 10.4 118.059 67.134 118.059 67.134 175.7 67.351 175.7 80.065 160.101 96.945 139.391 113.826 160.101 126.54 175.7 126.757 175.7 126.757 118.059 183.491 118.059 183.491 117.843 167.892 105.129 147.182 88.248 167.892 71.367 183.491 58.653"/>
  </g>
</svg>
